<mxfile host="Electron" modified="2024-05-16T08:42:51.429Z" agent="Mozilla/5.0 (Windows NT 10.0; Win64; x64) AppleWebKit/537.36 (KHTML, like Gecko) draw.io/24.2.5 Chrome/120.0.6099.109 Electron/28.1.0 Safari/537.36" etag="NRXF-TsuORaACZLfB4L8" version="24.2.5" type="device">
  <diagram name="Page-1" id="bNnXlrne2ry6vLi_Lvbz">
    <mxGraphModel dx="1793" dy="1105" grid="1" gridSize="11" guides="1" tooltips="1" connect="1" arrows="1" fold="1" page="1" pageScale="1" pageWidth="850" pageHeight="1100" math="0" shadow="0">
      <root>
        <mxCell id="0" />
        <mxCell id="1" parent="0" />
        <mxCell id="Hscxd5MFIAgjYMTBuhCe-1" value="&lt;h1&gt;&lt;font style=&quot;font-size: 12px;&quot;&gt;Banke Atm Bank&lt;/font&gt;&lt;/h1&gt;" style="text;html=1;align=center;verticalAlign=middle;resizable=0;points=[];autosize=1;strokeColor=none;fillColor=none;strokeWidth=7;" vertex="1" parent="1">
          <mxGeometry x="22" y="22" width="120" height="70" as="geometry" />
        </mxCell>
        <mxCell id="Hscxd5MFIAgjYMTBuhCe-3" value="1) New user&amp;nbsp;" style="text;html=1;align=center;verticalAlign=middle;resizable=0;points=[];autosize=1;strokeColor=none;fillColor=none;" vertex="1" parent="1">
          <mxGeometry x="38" y="72" width="88" height="33" as="geometry" />
        </mxCell>
        <mxCell id="Hscxd5MFIAgjYMTBuhCe-4" value="2) Old user" style="text;html=1;align=center;verticalAlign=middle;resizable=0;points=[];autosize=1;strokeColor=none;fillColor=none;" vertex="1" parent="1">
          <mxGeometry x="38" y="165" width="88" height="33" as="geometry" />
        </mxCell>
        <mxCell id="Hscxd5MFIAgjYMTBuhCe-10" value="&lt;div style=&quot;text-align: left;&quot;&gt;&lt;span style=&quot;background-color: initial;&quot;&gt;a) Create New Account&lt;/span&gt;&lt;/div&gt;&lt;div style=&quot;text-align: left;&quot;&gt;b) Cashless Transaction.&lt;br&gt;&lt;/div&gt;" style="text;html=1;align=center;verticalAlign=middle;resizable=0;points=[];autosize=1;strokeColor=none;fillColor=none;" vertex="1" parent="1">
          <mxGeometry x="78" y="100" width="154" height="44" as="geometry" />
        </mxCell>
        <mxCell id="Hscxd5MFIAgjYMTBuhCe-12" value="1) Login To Existing Account.&lt;div&gt;2) Change Pin&lt;/div&gt;&lt;div&gt;3) Deposit money.&lt;/div&gt;&lt;div&gt;4) Withdraw money.&lt;/div&gt;&lt;div&gt;5) Transfer To Other Banks.&lt;/div&gt;&lt;div&gt;6) Check Account Balance&lt;/div&gt;&lt;div&gt;7) Close Account;&lt;/div&gt;" style="text;html=1;align=left;verticalAlign=middle;resizable=0;points=[];autosize=1;strokeColor=none;fillColor=none;" vertex="1" parent="1">
          <mxGeometry x="85.5" y="193" width="176" height="110" as="geometry" />
        </mxCell>
        <mxCell id="Hscxd5MFIAgjYMTBuhCe-13" value="Actor" style="shape=umlActor;verticalLabelPosition=bottom;verticalAlign=top;html=1;outlineConnect=0;" vertex="1" parent="1">
          <mxGeometry x="38" y="693" width="30" height="60" as="geometry" />
        </mxCell>
        <mxCell id="Hscxd5MFIAgjYMTBuhCe-15" value="Create New Account" style="ellipse;whiteSpace=wrap;html=1;" vertex="1" parent="1">
          <mxGeometry x="264" y="396" width="99" height="66" as="geometry" />
        </mxCell>
        <mxCell id="Hscxd5MFIAgjYMTBuhCe-17" value="Cashless Transaction" style="ellipse;whiteSpace=wrap;html=1;" vertex="1" parent="1">
          <mxGeometry x="264" y="572" width="99" height="66" as="geometry" />
        </mxCell>
        <mxCell id="Hscxd5MFIAgjYMTBuhCe-23" value="Old user" style="ellipse;whiteSpace=wrap;html=1;" vertex="1" parent="1">
          <mxGeometry x="55" y="957" width="99" height="66" as="geometry" />
        </mxCell>
        <mxCell id="Hscxd5MFIAgjYMTBuhCe-24" value="&lt;font style=&quot;font-size: 10px;&quot;&gt;Deposite&amp;nbsp;&lt;/font&gt;&lt;div&gt;&lt;font size=&quot;3&quot; style=&quot;&quot;&gt;Money&lt;/font&gt;&lt;/div&gt;" style="ellipse;whiteSpace=wrap;html=1;" vertex="1" parent="1">
          <mxGeometry x="264" y="968" width="99" height="66" as="geometry" />
        </mxCell>
        <mxCell id="Hscxd5MFIAgjYMTBuhCe-25" value="&lt;font style=&quot;font-size: 10px;&quot;&gt;Change&amp;nbsp;&lt;/font&gt;&lt;div&gt;&lt;font size=&quot;3&quot;&gt;PIn&lt;/font&gt;&lt;/div&gt;" style="ellipse;whiteSpace=wrap;html=1;" vertex="1" parent="1">
          <mxGeometry x="264" y="880" width="99" height="66" as="geometry" />
        </mxCell>
        <mxCell id="Hscxd5MFIAgjYMTBuhCe-26" value="&lt;font style=&quot;font-size: 10px;&quot;&gt;Login To Existing Account&lt;/font&gt;" style="ellipse;whiteSpace=wrap;html=1;" vertex="1" parent="1">
          <mxGeometry x="308" y="792" width="99" height="77" as="geometry" />
        </mxCell>
        <mxCell id="Hscxd5MFIAgjYMTBuhCe-27" value="&lt;font style=&quot;font-size: 10px;&quot;&gt;Withdraw&amp;nbsp;&lt;/font&gt;&lt;div&gt;&lt;font size=&quot;3&quot;&gt;Money&lt;/font&gt;&lt;/div&gt;" style="ellipse;whiteSpace=wrap;html=1;" vertex="1" parent="1">
          <mxGeometry x="264" y="1056" width="99" height="66" as="geometry" />
        </mxCell>
        <mxCell id="Hscxd5MFIAgjYMTBuhCe-28" value="&lt;div style=&quot;text-wrap: nowrap;&quot;&gt;&lt;font style=&quot;font-size: 10px;&quot;&gt;Transfer To&lt;/font&gt;&lt;/div&gt;&lt;div style=&quot;text-wrap: nowrap;&quot;&gt;&lt;font size=&quot;3&quot;&gt;Other Banks.&lt;/font&gt;&lt;/div&gt;&lt;div&gt;&lt;br&gt;&lt;/div&gt;" style="ellipse;whiteSpace=wrap;html=1;align=center;" vertex="1" parent="1">
          <mxGeometry x="264" y="1144" width="99" height="66" as="geometry" />
        </mxCell>
        <mxCell id="Hscxd5MFIAgjYMTBuhCe-29" value="&lt;span style=&quot;text-align: left; text-wrap: nowrap;&quot;&gt;&lt;font style=&quot;font-size: 10px;&quot;&gt;Check Account&amp;nbsp;&lt;/font&gt;&lt;/span&gt;&lt;div&gt;&lt;span style=&quot;text-align: left; text-wrap: nowrap;&quot;&gt;&lt;font size=&quot;3&quot;&gt;Balance&lt;/font&gt;&lt;/span&gt;&lt;/div&gt;" style="ellipse;whiteSpace=wrap;html=1;" vertex="1" parent="1">
          <mxGeometry x="264" y="1232" width="99" height="66" as="geometry" />
        </mxCell>
        <mxCell id="Hscxd5MFIAgjYMTBuhCe-30" value="&lt;font style=&quot;font-size: 10px;&quot;&gt;Close&lt;/font&gt;&lt;div&gt;&lt;font size=&quot;3&quot;&gt;Account&lt;/font&gt;&lt;/div&gt;" style="ellipse;whiteSpace=wrap;html=1;" vertex="1" parent="1">
          <mxGeometry x="264" y="1320" width="99" height="66" as="geometry" />
        </mxCell>
        <mxCell id="Hscxd5MFIAgjYMTBuhCe-33" value="" style="group" vertex="1" connectable="0" parent="1">
          <mxGeometry x="55" y="484" width="99" height="66" as="geometry" />
        </mxCell>
        <mxCell id="Hscxd5MFIAgjYMTBuhCe-22" value="" style="ellipse;whiteSpace=wrap;html=1;movable=1;resizable=1;rotatable=1;deletable=1;editable=1;locked=0;connectable=1;" vertex="1" parent="Hscxd5MFIAgjYMTBuhCe-33">
          <mxGeometry width="99" height="66" as="geometry" />
        </mxCell>
        <mxCell id="Hscxd5MFIAgjYMTBuhCe-31" value="New user" style="text;html=1;align=center;verticalAlign=middle;resizable=1;points=[];autosize=1;strokeColor=none;fillColor=none;movable=1;rotatable=1;deletable=1;editable=1;locked=0;connectable=1;" vertex="1" parent="Hscxd5MFIAgjYMTBuhCe-33">
          <mxGeometry x="11" y="16.5" width="77" height="33" as="geometry" />
        </mxCell>
        <mxCell id="Hscxd5MFIAgjYMTBuhCe-35" value="" style="endArrow=classic;html=1;rounded=0;exitX=0.881;exitY=0.195;exitDx=0;exitDy=0;exitPerimeter=0;" edge="1" parent="1" source="Hscxd5MFIAgjYMTBuhCe-22" target="Hscxd5MFIAgjYMTBuhCe-15">
          <mxGeometry width="50" height="50" relative="1" as="geometry">
            <mxPoint x="198" y="501" as="sourcePoint" />
            <mxPoint x="253" y="451" as="targetPoint" />
          </mxGeometry>
        </mxCell>
        <mxCell id="Hscxd5MFIAgjYMTBuhCe-36" value="" style="endArrow=classic;html=1;rounded=0;exitX=0.949;exitY=0.731;exitDx=0;exitDy=0;exitPerimeter=0;" edge="1" parent="1" source="Hscxd5MFIAgjYMTBuhCe-22" target="Hscxd5MFIAgjYMTBuhCe-17">
          <mxGeometry width="50" height="50" relative="1" as="geometry">
            <mxPoint x="198.00000000000068" y="516.63" as="sourcePoint" />
            <mxPoint x="264" y="516.63" as="targetPoint" />
          </mxGeometry>
        </mxCell>
        <mxCell id="Hscxd5MFIAgjYMTBuhCe-39" value="" style="endArrow=classic;html=1;rounded=0;exitX=0.773;exitY=0.078;exitDx=0;exitDy=0;exitPerimeter=0;" edge="1" parent="1" source="Hscxd5MFIAgjYMTBuhCe-23" target="Hscxd5MFIAgjYMTBuhCe-26">
          <mxGeometry width="50" height="50" relative="1" as="geometry">
            <mxPoint x="110" y="963" as="sourcePoint" />
            <mxPoint x="160" y="913" as="targetPoint" />
          </mxGeometry>
        </mxCell>
        <mxCell id="Hscxd5MFIAgjYMTBuhCe-40" value="" style="endArrow=classic;html=1;rounded=0;entryX=0.044;entryY=0.749;entryDx=0;entryDy=0;entryPerimeter=0;exitX=1;exitY=0;exitDx=0;exitDy=0;" edge="1" parent="1" source="Hscxd5MFIAgjYMTBuhCe-23" target="Hscxd5MFIAgjYMTBuhCe-25">
          <mxGeometry width="50" height="50" relative="1" as="geometry">
            <mxPoint x="142" y="1007" as="sourcePoint" />
            <mxPoint x="192" y="957" as="targetPoint" />
          </mxGeometry>
        </mxCell>
        <mxCell id="Hscxd5MFIAgjYMTBuhCe-41" value="" style="endArrow=classic;html=1;rounded=0;exitX=0.928;exitY=0.277;exitDx=0;exitDy=0;exitPerimeter=0;entryX=0;entryY=0.5;entryDx=0;entryDy=0;" edge="1" parent="1" source="Hscxd5MFIAgjYMTBuhCe-23" target="Hscxd5MFIAgjYMTBuhCe-24">
          <mxGeometry width="50" height="50" relative="1" as="geometry">
            <mxPoint x="440" y="1051" as="sourcePoint" />
            <mxPoint x="490" y="1001" as="targetPoint" />
          </mxGeometry>
        </mxCell>
        <mxCell id="Hscxd5MFIAgjYMTBuhCe-42" value="" style="endArrow=classic;html=1;rounded=0;exitX=1;exitY=0.3333333333333333;exitDx=0;exitDy=0;exitPerimeter=0;" edge="1" parent="1" source="Hscxd5MFIAgjYMTBuhCe-13">
          <mxGeometry width="50" height="50" relative="1" as="geometry">
            <mxPoint x="68" y="693" as="sourcePoint" />
            <mxPoint x="99" y="550" as="targetPoint" />
          </mxGeometry>
        </mxCell>
        <mxCell id="Hscxd5MFIAgjYMTBuhCe-43" value="" style="endArrow=classic;html=1;rounded=0;entryX=0.345;entryY=-0.003;entryDx=0;entryDy=0;entryPerimeter=0;exitX=1;exitY=1;exitDx=0;exitDy=0;exitPerimeter=0;" edge="1" parent="1" source="Hscxd5MFIAgjYMTBuhCe-13" target="Hscxd5MFIAgjYMTBuhCe-23">
          <mxGeometry width="50" height="50" relative="1" as="geometry">
            <mxPoint x="49" y="770" as="sourcePoint" />
            <mxPoint x="126" y="907" as="targetPoint" />
          </mxGeometry>
        </mxCell>
        <mxCell id="Hscxd5MFIAgjYMTBuhCe-44" value="" style="endArrow=classic;html=1;rounded=0;exitX=1;exitY=0.5;exitDx=0;exitDy=0;" edge="1" parent="1" source="Hscxd5MFIAgjYMTBuhCe-23" target="Hscxd5MFIAgjYMTBuhCe-27">
          <mxGeometry width="50" height="50" relative="1" as="geometry">
            <mxPoint x="123.5" y="1161" as="sourcePoint" />
            <mxPoint x="173.5" y="1111" as="targetPoint" />
          </mxGeometry>
        </mxCell>
        <mxCell id="Hscxd5MFIAgjYMTBuhCe-45" value="" style="endArrow=classic;html=1;rounded=0;entryX=0.113;entryY=0.184;entryDx=0;entryDy=0;entryPerimeter=0;exitX=0.972;exitY=0.719;exitDx=0;exitDy=0;exitPerimeter=0;" edge="1" parent="1" source="Hscxd5MFIAgjYMTBuhCe-23" target="Hscxd5MFIAgjYMTBuhCe-28">
          <mxGeometry width="50" height="50" relative="1" as="geometry">
            <mxPoint x="142" y="1081" as="sourcePoint" />
            <mxPoint x="192" y="1031" as="targetPoint" />
          </mxGeometry>
        </mxCell>
        <mxCell id="Hscxd5MFIAgjYMTBuhCe-46" value="" style="endArrow=classic;html=1;rounded=0;exitX=0.672;exitY=0.978;exitDx=0;exitDy=0;exitPerimeter=0;" edge="1" parent="1" source="Hscxd5MFIAgjYMTBuhCe-23" target="Hscxd5MFIAgjYMTBuhCe-29">
          <mxGeometry width="50" height="50" relative="1" as="geometry">
            <mxPoint x="264" y="1183" as="sourcePoint" />
            <mxPoint x="314" y="1133" as="targetPoint" />
          </mxGeometry>
        </mxCell>
      </root>
    </mxGraphModel>
  </diagram>
</mxfile>
